<?xml version="1.0" ?>
<!DOCTYPE svg  PUBLIC '-//W3C//DTD SVG 1.1//EN'  'http://www.w3.org/Graphics/SVG/1.1/DTD/svg11.dtd'>
<!-- Uploaded to: SVG Repo, www.svgrepo.com, Generator: SVG Repo Mixer Tools -->
<svg fill="#000000" width="800px" height="800px" viewBox="0 0 846.66 846.66" style="shape-rendering:geometricPrecision; text-rendering:geometricPrecision; image-rendering:optimizeQuality; fill-rule:evenodd; clip-rule:evenodd" version="1.1" xml:space="preserve" xmlns="http://www.w3.org/2000/svg" xmlns:xlink="http://www.w3.org/1999/xlink">
<defs>
<style type="text/css">
   <![CDATA[
    .fil0 {fill:black;fill-rule:nonzero}
   ]]>
  </style>
</defs>
<g id="Layer_x0020_1">
<path class="fil0" d="M757.15 129.49c0,-27.18 41.33,-27.18 41.33,0l0 447.77c0,11.41 -9.25,20.67 -20.66,20.67l-193.68 0 0 78.07 93.58 0c11.41,0 20.66,9.26 20.66,20.67l0 119.4c0,11.41 -9.25,20.67 -20.66,20.67l-508.78 0c-11.41,0 -20.66,-9.26 -20.66,-20.67l0 -119.4c0,-11.41 9.25,-20.67 20.66,-20.67l93.58 0 0 -78.07 -193.68 0c-11.41,0 -20.66,-9.26 -20.66,-20.67l0 -447.77c0,-27.18 41.33,-27.18 41.33,0l0 427.11c222.55,0 445.09,0 667.64,0l0 -427.11zm-567.54 587.84l0 78.08 467.44 0 0 -78.08c-155.81,0 -311.63,0 -467.44,0zm250.1 -464.78l-71.71 165.12c17.49,5.4 36.07,8.31 55.33,8.31 103.48,0 187.36,-83.88 187.36,-187.36 0,-30.19 -7.14,-58.71 -19.82,-83.97l-151.16 97.9zm-109.45 148.72l68.95 -158.76 -115.35 -129.01c-29.78,33.17 -47.89,77.03 -47.89,125.12 0,67.45 36.07,129.26 94.29,162.65zm-15.72 -315.21l112.38 125.69 141.52 -91.66c-35.66,-43.62 -88.64,-68.84 -145.11,-68.84 -40.57,0 -78.12,12.9 -108.79,34.81zm108.79 -76.14c126.3,0 228.69,102.39 228.69,228.7 0,126.3 -102.39,228.69 -228.69,228.69 -126.3,0 -228.69,-102.39 -228.69,-228.69 0,-126.31 102.39,-228.7 228.69,-228.7zm119.48 588.01l-238.96 0 0 78.07 238.96 0 0 -78.07z"/>
</g>
</svg>